# xmcd
#
# Track frame offsets:
#	150
#	3682
#	22552
#	39962
#	64657
#	86897
#	106240
#	125535
#	143965
#	163957
#	184935
#	203930
#	226202
#	246205
#	264990
#	279490
#	299420
#	316852
#
# Disc length: 4438 seconds
#
# Revision: 1
# Processed by: cddbd v1.4PL0 Copyright (c) Steve Scherf et al.
# Submitted via: audiograbber 1.82.00
#
DISCID=fd115412
DTITLE=Joe - My Name Is Joe
DYEAR=1900
DGENRE=
TTITLE0=Intro (My Name Is Joe)
TTITLE1=Somebody Gotta Be On Top
TTITLE2=Stutter
TTITLE3=Table For Two
TTITLE4=I Wanna Know
TTITLE5=Treat Her Like A Lady
TTITLE6=Get Crunk Tonight
TTITLE7=5 6 3 (Joe)
TTITLE8=Peep Show
TTITLE9=One Life Stand
TTITLE10=Black Hawk
TTITLE11=I Believe In You feat Nsync
TTITLE12=So Beautiful
TTITLE13=Thank God I Found You (Make It Last Edit feat Mariah Carey and Nas)
TTITLE14=Soon As I Get Paid
TTITLE15=I'm Missing You
TTITLE16=No One Else Comes Close
TTITLE17=Stutter (Double Take Remix feat Mystikal)
EXTD=
EXTT0=
EXTT1=
EXTT2=
EXTT3=
EXTT4=
EXTT5=
EXTT6=
EXTT7=
EXTT8=
EXTT9=
EXTT10=
EXTT11=
EXTT12=
EXTT13=
EXTT14=
EXTT15=
EXTT16=
EXTT17=
PLAYORDER=
